<?xml version="1.0" encoding="utf-8"?>
<svg viewBox="0 0 500 500" xmlns="http://www.w3.org/2000/svg" xmlns:bx="https://boxy-svg.com">
  <g transform="matrix(1, 0, 0, 1, 525.210083, 249.999985)" id="b3e689c9-9db6-4a19-abec-63de408d11b4" bx:origin="0.56 0.555"/>
  <g transform="matrix(-9.800755, -7.561839, 7.572102, -9.739337, 263.055664, 238.284393)" style="" bx:origin="-2.233 0.891">
    <g style="" vector-effect="non-scaling-stroke">
      <g transform="matrix(1 0 0 1 -8.51 -10.2)">
        <path style="stroke: none; stroke-width: 1; stroke-dasharray: none; stroke-linecap: butt; stroke-dashoffset: 0; stroke-linejoin: miter; stroke-miterlimit: 4; fill: rgb(221,46,68); fill-rule: nonzero; opacity: 1;" vector-effect="non-scaling-stroke" transform=" translate(-9.49, -7.3)" d="M 16.806 10.675 C 15.886000000000001 8.628 14.803 6.609000000000001 13.780000000000001 4.415000000000001 C 13.752 4.347000000000001 13.729000000000001 4.277000000000001 13.698 4.2090000000000005 C 13.634 4.067 13.561 3.9320000000000004 13.49 3.7960000000000007 L 13.438 3.6850000000000005 L 13.436 3.6880000000000006 C 11.798 0.698 8.343 -0.674 5.46 0.621 C 2.414 1.988 1.164 5.813 2.67 9.163 C 4.175 12.514 7.864 14.120000000000001 10.91 12.752 C 11.016 12.705 11.115 12.647 11.216 12.593 C 13.151 13.031 13.209999999999999 14.47 13.209999999999999 14.47 C 13.209999999999999 14.47 17.828 12.949000000000002 16.805999999999997 10.675 z M 4.876 8.173 C 3.918 6.04 4.6240000000000006 3.646 6.4510000000000005 2.8259999999999996 C 8.277000000000001 2.0039999999999996 10.535 3.0679999999999996 11.493 5.199999999999999 C 12.451 7.331999999999999 11.746 9.725999999999999 9.92 10.546 C 8.092 11.366999999999999 5.833 10.305 4.876 8.172999999999998 z" stroke-linecap="round"/>
      </g>
      <g transform="matrix(1 0 0 1 2.96 5.21)">
        <path style="stroke: none; stroke-width: 1; stroke-dasharray: none; stroke-linecap: butt; stroke-dashoffset: 0; stroke-linejoin: miter; stroke-miterlimit: 4; fill: rgb(153,170,181); fill-rule: nonzero; opacity: 1;" vector-effect="non-scaling-stroke" transform=" translate(-20.96, -22.71)" d="M 26.978 34.868 C 28.141000000000002 34.211 29.165000000000003 32.394000000000005 28.507 31.230000000000004 L 16.754 10.559 C 15.651000000000002 11.055 13.816 12.872 13.21 14.471 L 26.978 34.867999999999995 z" stroke-linecap="round"/>
      </g>
      <g transform="matrix(1 0 0 1 8.51 -10.2)">
        <path style="stroke: none; stroke-width: 1; stroke-dasharray: none; stroke-linecap: butt; stroke-dashoffset: 0; stroke-linejoin: miter; stroke-miterlimit: 4; fill: rgb(221,46,68); fill-rule: nonzero; opacity: 1;" vector-effect="non-scaling-stroke" transform=" translate(-26.51, -7.3)" d="M 30.54 0.62 C 27.657999999999998 -0.6749999999999999 24.201999999999998 0.697 22.564 3.6870000000000003 L 22.561 3.684 L 22.508 3.7960000000000003 C 22.436999999999998 3.931 22.363 4.066000000000001 22.3 4.208 C 22.27 4.276 22.247 4.345000000000001 22.219 4.414000000000001 C 21.196 6.6080000000000005 20.112000000000002 8.627 19.193 10.674 C 18.172 12.948 22.790000000000003 14.469999999999999 22.790000000000003 14.469999999999999 C 22.790000000000003 14.469999999999999 22.849000000000004 13.030999999999999 24.783 12.592999999999998 C 24.885 12.646999999999998 24.983 12.703999999999999 25.09 12.751999999999999 C 28.134999999999998 14.12 31.823 12.514 33.33 9.162999999999998 C 34.835 5.812999999999999 33.585 1.9879999999999987 30.54 0.6199999999999992 z M 31.124 8.173 C 30.165 10.305 27.907999999999998 11.367 26.08 10.546 C 24.253999999999998 9.725999999999999 23.549 7.331999999999999 24.508 5.199999999999999 C 25.464 3.067999999999999 27.721999999999998 2.0049999999999994 29.549 2.825999999999999 C 31.375999999999998 3.645999999999999 32.081 6.039999999999999 31.124 8.173 z" stroke-linecap="round"/>
      </g>
      <g transform="matrix(1 0 0 1 -2.96 5.21)">
        <path style="stroke: none; stroke-width: 1; stroke-dasharray: none; stroke-linecap: butt; stroke-dashoffset: 0; stroke-linejoin: miter; stroke-miterlimit: 4; fill: rgb(204,214,221); fill-rule: nonzero; opacity: 1;" vector-effect="non-scaling-stroke" transform=" translate(-15.04, -22.71)" d="M 9.022 34.868 C 7.859 34.211 6.835000000000001 32.394000000000005 7.493 31.230000000000004 L 19.246000000000002 10.559000000000005 C 20.349000000000004 11.055000000000005 22.184 12.872000000000005 22.790000000000003 14.471000000000004 L 9.022 34.868 z" stroke-linecap="round"/>
      </g>
      <g transform="matrix(1 0 0 1 0 -0.1)">
        <path style="stroke: none; stroke-width: 1; stroke-dasharray: none; stroke-linecap: butt; stroke-dashoffset: 0; stroke-linejoin: miter; stroke-miterlimit: 4; fill: rgb(153,170,181); fill-rule: nonzero; opacity: 1;" vector-effect="non-scaling-stroke" transform=" translate(-18, -17.4)" d="M 19.562 17.396 C 19.562 18.259 18.861 18.958000000000002 18 18.958000000000002 C 17.137 18.958000000000002 16.438 18.259 16.438 17.396 C 16.438 16.533 17.137 15.834000000000001 18 15.834000000000001 C 18.862 15.834000000000001 19.562 16.533 19.562 17.396 z" stroke-linecap="round"/>
      </g>
    </g>
  </g>
</svg>